<?xml version="1.0" standalone="no"?>
<!DOCTYPE svg PUBLIC "-//W3C//DTD SVG 20010904//EN"
 "http://www.w3.org/TR/2001/REC-SVG-20010904/DTD/svg10.dtd">
<svg version="1.0" xmlns="http://www.w3.org/2000/svg"
 width="1024.000000pt" height="1024.000000pt" viewBox="0 0 1024.000000 1024.000000"
 preserveAspectRatio="xMidYMid meet">
<metadata>
Created by potrace 1.16, written by Peter Selinger 2001-2019
</metadata>
<g transform="translate(0.000000,1024.000000) scale(0.100000,-0.100000)"
fill="#000000" stroke="none">
<path d="M0 5120 l0 -5120 5120 0 5120 0 0 5120 0 5120 -5120 0 -5120 0 0
-5120z m5728 3944 c28 -3 52 -9 52 -13 0 -5 62 -11 137 -15 90 -5 143 -12 153
-20 9 -8 54 -16 113 -19 54 -3 104 -10 110 -15 7 -6 41 -15 77 -21 164 -26
183 -30 190 -41 4 -7 29 -15 56 -17 27 -3 56 -11 64 -18 8 -7 37 -15 64 -18
29 -3 55 -12 61 -21 7 -9 33 -19 59 -22 25 -4 56 -15 68 -25 11 -11 33 -19 48
-19 16 0 30 -6 33 -14 3 -8 24 -17 46 -21 23 -4 41 -10 41 -15 0 -4 20 -15 45
-24 25 -10 45 -22 45 -27 0 -5 9 -9 19 -9 11 0 26 -6 33 -13 7 -7 20 -16 29
-19 10 -4 49 -29 88 -57 39 -28 74 -51 77 -51 3 0 11 -6 19 -12 7 -7 27 -24
45 -38 117 -91 330 -291 330 -311 0 -4 13 -22 30 -40 16 -19 30 -39 30 -45 0
-6 7 -18 16 -25 9 -7 20 -22 25 -34 10 -20 15 -29 56 -94 12 -19 20 -38 18
-41 -3 -4 4 -15 15 -25 11 -10 20 -25 20 -34 0 -9 6 -25 13 -36 8 -11 19 -35
25 -54 14 -38 -1 -70 -30 -65 -10 1 -18 -2 -18 -7 0 -5 5 -9 11 -9 5 0 7 -5 4
-11 -4 -6 -13 -8 -19 -6 -18 7 -40 -9 -32 -22 4 -6 16 -11 27 -11 10 0 19 -5
19 -11 0 -5 -6 -7 -12 -3 -10 6 -10 4 0 -8 11 -14 10 -18 -3 -26 -16 -8 -16
-10 0 -25 18 -19 45 -23 45 -6 0 5 4 8 9 5 10 -7 9 6 -3 42 -4 12 -12 20 -17
17 -5 -4 -9 -1 -9 4 0 6 4 11 9 11 4 0 7 10 5 23 -4 22 21 66 31 55 10 -9 37
-112 42 -158 3 -25 11 -52 18 -60 14 -17 28 -187 16 -195 -16 -9 -18 -41 -4
-53 11 -11 13 -8 8 17 -4 23 -1 31 9 31 22 0 28 -78 24 -311 -2 -141 -7 -211
-15 -220 -7 -8 -15 -57 -19 -109 -4 -52 -11 -103 -16 -113 -5 -10 -13 -39 -18
-65 -17 -89 -36 -157 -48 -179 -6 -12 -12 -31 -12 -42 0 -11 -7 -26 -15 -35
-8 -8 -15 -23 -15 -33 -1 -53 -32 -87 -43 -45 -3 9 -3 -4 0 -29 4 -34 1 -50
-11 -62 -9 -9 -19 -30 -23 -48 -3 -18 -14 -40 -25 -51 -10 -10 -18 -27 -18
-38 0 -11 -7 -23 -15 -26 -8 -4 -15 -14 -15 -23 0 -21 -57 -111 -70 -111 -5 0
-7 -7 -3 -16 3 -9 -3 -23 -16 -35 -11 -11 -21 -24 -21 -30 0 -6 -15 -30 -32
-53 -18 -24 -40 -54 -48 -66 -13 -19 -37 -52 -62 -85 -5 -5 -28 -37 -53 -70
-42 -56 -87 -111 -145 -174 -14 -15 -45 -51 -70 -81 -25 -29 -50 -58 -57 -64
-6 -6 -40 -39 -76 -73 -66 -64 -90 -77 -85 -46 3 18 -26 22 -75 8 -22 -6 -26
-11 -21 -29 4 -11 13 -25 22 -30 12 -7 12 -10 1 -17 -10 -6 -7 -9 11 -9 21 0
12 -12 -65 -85 -105 -99 -134 -125 -140 -125 -2 0 -24 -19 -48 -42 -25 -24
-64 -59 -87 -78 -24 -19 -48 -39 -54 -45 -27 -25 -105 -85 -110 -85 -3 0 -17
-11 -32 -25 -21 -19 -30 -22 -40 -14 -8 6 -15 8 -15 3 -1 -5 -2 -13 -4 -19 -1
-5 -3 -14 -3 -19 -1 -5 -9 -3 -17 4 -16 14 -21 50 -6 50 5 0 7 -9 4 -20 -3
-12 0 -20 8 -20 7 0 9 3 6 7 -4 3 0 14 9 24 19 21 12 49 -11 49 -9 0 -13 -5
-10 -10 4 -6 12 -7 18 -4 8 5 7 2 -1 -7 -16 -17 -48 0 -46 25 1 10 -6 16 -17
16 -10 0 -19 -7 -19 -15 0 -8 7 -15 15 -15 12 0 14 -7 9 -27 -4 -16 -13 -32
-21 -36 -19 -11 -16 -35 6 -46 14 -8 20 -7 25 4 3 8 11 15 18 15 8 0 9 -3 3
-8 -18 -13 -35 -51 -35 -80 0 -22 14 -41 58 -83 31 -30 67 -67 79 -82 12 -15
76 -85 142 -154 67 -70 121 -135 121 -145 0 -10 5 -17 12 -15 7 1 17 -8 23
-20 5 -13 15 -23 21 -23 15 0 204 -198 204 -214 0 -8 -11 -13 -25 -13 -14 0
-32 -9 -39 -19 -12 -15 -11 -22 1 -41 19 -29 28 -29 47 -1 18 25 22 8 6 -22
-8 -15 -6 -20 11 -25 11 -4 36 -4 56 0 31 5 33 8 21 23 -53 67 131 -113 213
-209 26 -30 75 -83 110 -119 77 -78 245 -260 289 -312 18 -21 52 -59 77 -85
24 -27 61 -67 81 -91 20 -24 71 -79 112 -122 79 -84 85 -91 138 -155 19 -22
68 -76 110 -120 43 -44 111 -120 152 -170 41 -49 85 -98 98 -108 31 -26 156
-187 149 -193 -3 -3 -10 3 -16 14 -8 14 -17 19 -33 14 -16 -4 -20 -2 -15 10 3
10 -1 18 -13 21 -12 3 -17 0 -14 -8 4 -9 -3 -11 -20 -8 -16 3 -26 1 -26 -6 0
-6 5 -11 10 -11 6 0 10 -5 10 -11 0 -5 -4 -7 -10 -4 -5 3 -10 -1 -10 -9 0 -9
5 -15 11 -14 18 5 21 -19 4 -26 -14 -5 -101 35 -115 53 -3 3 -17 12 -32 18
-30 13 -38 33 -13 33 8 0 29 16 46 35 18 19 36 32 40 29 5 -3 9 2 9 11 0 9 -4
14 -8 11 -5 -3 -9 1 -9 8 0 8 7 12 15 8 11 -4 13 -2 6 9 -5 8 -9 19 -9 24 -1
6 -7 9 -14 7 -8 -2 -11 3 -8 12 4 9 1 18 -5 22 -6 4 -8 3 -4 -4 8 -13 -22 -44
-35 -37 -5 3 -6 22 -3 41 5 32 3 35 -15 32 -11 -2 -20 1 -20 6 1 12 -23 26
-34 19 -5 -3 -3 -9 4 -14 7 -4 10 -12 5 -16 -5 -4 -11 -2 -13 5 -3 7 -12 16
-22 21 -13 7 -17 5 -17 -10 0 -12 5 -18 14 -14 8 3 12 0 10 -7 -5 -15 -32 -18
-68 -8 -19 6 -31 5 -35 -3 -3 -7 -3 0 0 15 3 17 1 28 -5 28 -6 0 -8 -4 -5 -10
3 -5 -1 -10 -9 -10 -9 0 -14 -8 -13 -20 1 -13 8 -20 23 -20 30 0 39 -27 12
-36 -19 -6 -19 -7 -5 -16 10 -5 17 -13 17 -18 0 -16 -50 -11 -56 5 -4 8 -12
15 -20 15 -8 0 -23 9 -33 19 -10 10 -29 22 -41 26 -13 4 -19 12 -16 21 3 8 2
13 -3 9 -14 -8 -63 14 -59 26 2 7 16 13 31 15 15 1 25 -1 23 -5 -4 -5 33 -7
67 -2 4 1 7 10 7 20 0 24 -30 37 -31 13 0 -10 -3 -12 -6 -4 -2 6 -9 9 -14 6
-6 -3 -18 1 -27 9 -9 8 -24 17 -32 20 -12 4 -11 6 3 6 15 1 13 5 -10 25 -25
22 -27 27 -15 47 13 20 12 21 -8 16 -14 -3 -23 0 -27 9 -3 8 -12 13 -20 10
-14 -6 -73 19 -73 30 0 3 5 2 12 -2 7 -5 9 -2 5 9 -4 10 1 18 14 22 16 5 17
10 7 28 l-11 21 -15 -22 c-8 -12 -20 -22 -26 -22 -6 0 -4 5 4 10 10 7 11 10 2
10 -7 0 -15 -7 -18 -15 -4 -8 -11 -12 -17 -8 -7 4 -8 0 -4 -13 6 -15 3 -13
-11 5 -14 17 -21 20 -27 11 -6 -10 -10 -9 -17 4 -9 16 -11 16 -24 -1 -12 -17
-13 -16 -14 7 0 14 -5 32 -11 40 -8 11 -9 9 -3 -10 6 -22 5 -24 -10 -11 -9 8
-15 19 -12 26 2 6 -2 12 -10 12 -8 0 -14 -5 -14 -10 0 -6 -8 -3 -18 6 -20 19
-37 23 -27 7 3 -5 3 -10 -2 -10 -12 1 -48 30 -37 30 5 0 1 5 -9 11 -13 8 -22
7 -34 -3 -14 -11 -16 -11 -11 3 9 23 -23 19 -43 -5 -18 -21 -57 -17 -83 9 -8
8 -21 15 -28 15 -7 0 -28 14 -47 30 -18 17 -39 30 -45 31 -6 0 -2 4 9 9 11 4
24 4 30 -1 12 -12 28 -11 20 1 -3 5 3 18 14 29 11 11 17 22 14 25 -4 3 1 6 10
6 10 0 17 4 17 9 0 5 -9 7 -20 4 -11 -3 -20 -12 -20 -19 0 -8 -2 -14 -4 -14
-2 0 -12 -3 -22 -7 -14 -5 -16 -2 -12 14 4 15 0 23 -13 26 -23 6 -26 27 -4 27
8 0 15 4 15 9 0 5 -16 8 -36 7 -20 -1 -38 2 -40 6 -8 13 -55 9 -70 -6 -20 -20
-18 -26 9 -26 19 -1 20 -2 5 -11 -13 -7 -30 -4 -63 11 -47 21 -59 40 -26 40
11 0 22 4 26 10 3 5 -13 7 -43 3 -35 -4 -52 -1 -63 9 -8 8 -28 21 -44 29 -17
9 -29 21 -28 27 2 7 -7 12 -20 12 -13 0 -28 5 -34 11 -6 6 -21 16 -34 23 -32
16 -35 34 -4 32 14 0 25 -5 25 -9 0 -5 6 -5 13 0 19 12 38 12 31 1 -4 -7 5 -8
26 -3 27 6 32 5 27 -8 -8 -20 2 -28 18 -14 18 17 -3 33 -56 44 -27 6 -43 14
-41 22 1 7 -2 19 -8 25 -5 7 -9 15 -7 17 1 2 -4 -2 -10 -10 -11 -13 -13 -13
-13 2 0 11 -8 17 -22 17 -18 0 -23 -6 -24 -26 -2 -17 2 -24 12 -20 8 3 11 0 8
-9 -12 -30 -65 -19 -119 26 -11 9 -30 20 -43 24 -14 4 -21 12 -18 20 3 9 0 12
-8 9 -7 -3 -20 2 -29 10 -9 9 -22 16 -29 16 -24 1 -49 27 -42 45 6 15 4 16
-12 7 -14 -7 -24 -7 -36 2 -21 16 -13 27 16 21 73 -14 82 -13 94 5 10 17 9 19
-11 18 -40 -2 -46 2 -42 22 2 12 -2 20 -9 20 -7 0 -21 9 -30 19 -10 11 -31 23
-47 26 -16 4 -29 12 -29 18 0 7 -4 6 -10 -3 -9 -13 -10 -13 -10 0 0 13 -1 13
-10 0 -6 -10 -10 -11 -10 -3 0 7 -3 12 -7 12 -22 -4 -24 3 -8 21 17 18 17 20
2 14 -11 -4 -17 -1 -17 7 0 8 -6 5 -15 -7 -14 -19 -14 -19 -15 1 -1 12 -4 15
-7 7 -4 -10 -8 -10 -19 -1 -8 6 -14 8 -14 4 0 -4 -7 -2 -15 5 -9 8 -15 8 -15
2 0 -6 -3 -17 -6 -26 -4 -12 1 -14 25 -11 28 4 30 2 21 -14 -8 -15 -5 -20 11
-24 14 -4 19 -2 15 8 -2 7 2 16 10 19 9 3 12 2 9 -5 -4 -6 1 -16 11 -23 17
-13 17 -14 -3 -24 -21 -12 -63 -5 -63 9 0 5 -11 14 -25 19 -14 5 -25 14 -25
20 0 5 -9 10 -20 10 -11 0 -20 4 -20 9 0 5 -16 16 -36 26 -25 11 -34 21 -30
32 5 12 1 14 -15 10 -28 -8 -69 9 -69 27 0 9 -6 13 -12 11 -18 -7 -42 11 -34
24 4 6 14 11 22 11 8 0 12 -5 9 -10 -3 -6 1 -10 10 -10 10 0 13 5 9 12 -5 7 0
9 14 6 13 -4 23 0 26 9 3 8 2 11 -3 8 -5 -3 -13 -1 -16 5 -5 8 -11 7 -21 -1
-8 -6 -23 -9 -34 -6 -11 3 -23 1 -26 -4 -8 -13 -27 -11 -49 5 -16 12 -17 16
-6 30 9 11 10 16 2 16 -6 0 -14 -7 -17 -15 -7 -18 -18 -19 -36 -2 -7 7 -21 16
-31 20 -10 4 -15 11 -12 17 4 6 -5 10 -19 10 -14 0 -26 5 -26 10 0 6 -6 10
-13 10 -7 0 -23 9 -35 20 -12 11 -28 20 -36 20 -8 0 -21 6 -28 14 -8 7 -24 17
-36 20 -12 4 -22 12 -22 17 0 6 -13 15 -30 20 -16 6 -30 16 -30 23 0 6 -10 12
-22 13 -21 2 -61 32 -43 34 6 0 18 2 28 4 9 2 22 -5 27 -16 15 -28 60 -24 90
8 14 15 20 24 13 20 -6 -4 -15 -2 -19 4 -5 9 -10 8 -18 -3 -16 -21 -42 -28
-55 -15 -9 9 -6 16 11 30 15 12 17 17 6 14 -11 -4 -15 -1 -13 11 2 9 4 19 4
22 1 3 10 6 20 7 14 1 18 -3 14 -13 -7 -20 7 -18 23 3 7 10 20 18 30 18 30 0
26 23 -5 30 -17 4 -33 11 -36 16 -4 5 -12 9 -18 9 -7 0 -6 -4 3 -10 12 -7 11
-10 -5 -16 -11 -5 -20 -3 -23 4 -12 36 -64 -13 -54 -51 3 -12 1 -19 -3 -15 -5
4 -15 2 -23 -5 -12 -9 -14 -9 -9 0 5 7 -7 22 -30 37 -26 18 -39 22 -44 14 -4
-7 -6 -15 -3 -19 2 -4 -2 -10 -8 -12 -12 -5 16 -11 35 -8 4 0 7 -3 7 -8 0 -13
-41 -25 -49 -15 -8 12 -35 29 -98 61 -29 15 -50 30 -48 34 3 3 -9 9 -25 13
-18 3 -30 12 -30 21 0 8 -8 15 -18 15 -28 0 -34 11 -14 26 20 16 46 18 37 4
-3 -5 1 -10 9 -10 20 0 20 19 2 46 -10 13 -11 25 -5 35 15 25 10 27 -49 26
-31 -1 -63 2 -70 6 -7 5 -12 3 -12 -3 0 -6 -5 -8 -12 -4 -10 6 -9 3 0 -8 8 -9
19 -15 26 -12 8 3 16 -1 19 -9 4 -11 -6 -14 -44 -16 -35 -1 -51 3 -55 13 -3 7
-18 16 -35 20 -33 6 -40 39 -12 54 12 8 18 31 24 93 4 46 14 109 22 139 34
123 49 188 61 257 7 40 18 78 23 85 6 7 13 42 17 78 4 44 12 69 23 77 12 10
19 10 24 2 4 -7 14 -9 23 -6 8 3 18 2 21 -3 3 -5 14 -8 25 -7 10 1 16 5 14 9
-3 5 -10 6 -15 3 -5 -4 -9 -1 -9 6 0 7 8 9 21 6 12 -3 18 -3 15 0 -3 4 -1 12
5 20 8 8 8 13 1 13 -6 0 -13 -6 -16 -12 -3 -7 -3 -3 0 10 6 25 -11 31 -20 6
-4 -10 -13 -13 -25 -9 -11 3 -22 1 -26 -5 -3 -5 -11 -10 -16 -10 -14 0 0 125
17 159 8 14 14 50 14 79 0 61 17 108 50 137 l23 20 -5 -22 c-3 -12 -1 -24 6
-27 7 -3 6 -9 -5 -18 -9 -7 -14 -19 -11 -27 3 -8 0 -11 -6 -7 -6 4 -8 -8 -5
-32 10 -66 8 -97 -4 -97 -6 0 -14 -3 -18 -6 -3 -4 11 -6 32 -5 22 1 39 6 39
14 1 6 2 19 3 27 0 8 6 15 12 15 7 0 9 -10 5 -25 -7 -27 0 -31 24 -15 10 6 22
4 38 -6 13 -9 26 -13 29 -10 3 3 -1 8 -10 12 -12 4 -14 11 -7 29 7 19 6 23 -5
19 -8 -3 -11 -12 -8 -21 5 -13 -3 -11 -35 7 -47 26 -53 40 -19 40 22 1 22 1
-3 16 -14 8 -18 13 -9 11 9 -3 22 3 29 14 11 14 23 17 52 14 21 -3 38 -2 38 3
0 4 -14 8 -32 7 -18 0 -33 6 -36 14 -3 8 0 11 7 7 7 -4 9 -2 5 7 -3 8 0 18 5
22 6 3 9 11 6 16 -4 5 -1 9 4 9 8 0 7 7 -1 19 -7 11 -16 17 -20 15 -4 -3 -9 3
-9 13 -1 17 -2 17 -6 1 -2 -10 -11 -18 -19 -18 -8 0 -12 -5 -9 -10 4 -6 11 -7
17 -4 7 4 8 2 4 -4 -10 -16 -36 -3 -36 19 0 12 5 16 15 13 8 -4 15 -1 15 5 0
14 66 74 123 112 26 17 47 35 47 39 0 5 9 12 20 15 11 3 20 13 20 21 0 8 4 14
8 14 5 0 18 8 30 18 12 9 33 26 47 37 14 11 34 28 43 38 9 9 21 17 26 17 5 0
16 6 25 14 9 8 28 26 43 40 15 13 37 27 48 31 12 4 19 9 16 12 -3 3 9 17 27
31 18 14 57 49 88 76 31 28 74 68 97 89 23 20 46 37 52 37 5 0 10 7 10 15 0 8
5 15 10 15 16 0 390 379 390 395 0 2 17 22 38 45 106 117 114 128 131 165 5
12 16 27 25 34 9 7 16 17 16 21 0 5 23 43 52 86 62 92 88 142 88 165 0 10 6
24 14 31 7 8 17 34 21 59 4 24 15 52 24 63 13 15 16 46 17 198 1 142 4 182 15
189 10 6 10 9 2 9 -7 0 -13 5 -13 11 0 6 9 8 20 4 23 -7 48 4 31 14 -6 4 -12
17 -14 29 -2 12 -7 25 -12 29 -4 5 -5 2 0 -6 5 -10 4 -12 -4 -7 -6 4 -11 13
-10 19 3 25 -2 33 -20 33 -12 0 -17 -5 -13 -15 3 -9 1 -12 -6 -7 -7 4 -15 1
-18 -8 -9 -22 -21 -20 -30 6 -8 25 -8 26 -76 102 -29 32 -57 65 -61 72 -4 8
-15 14 -24 14 -11 0 -14 6 -10 20 4 16 2 20 -12 15 -19 -6 -49 20 -37 32 4 4
10 3 14 -3 8 -11 72 -14 72 -3 0 4 9 9 20 12 11 3 20 10 20 17 0 8 -5 8 -17 1
-15 -8 -21 -4 -33 21 -8 17 -19 30 -24 29 -9 -3 -26 18 -26 30 0 4 6 7 13 6
32 -1 48 4 42 13 -7 12 -57 2 -67 -14 -5 -8 -8 -7 -8 2 0 6 -5 12 -11 12 -5 0
-7 -6 -4 -12 4 -7 0 -5 -8 5 -8 10 -27 20 -42 23 -24 4 -26 2 -19 -18 9 -29
24 -40 47 -34 11 3 25 2 32 -1 20 -7 6 -33 -17 -33 -11 0 -29 -5 -40 -11 -24
-13 -74 4 -63 21 3 6 -5 10 -19 10 -35 0 -56 10 -56 26 0 9 -11 14 -27 14 -16
0 -35 5 -43 10 -13 9 -13 11 0 20 11 7 2 10 -33 10 -26 0 -58 7 -72 16 -13 8
-39 18 -57 21 -42 6 -58 20 -38 33 9 6 10 10 3 10 -6 0 -14 -4 -17 -9 -4 -5
-24 -5 -48 1 -53 11 -74 29 -29 23 18 -2 31 -1 27 2 -3 3 -1 14 4 23 8 16 5
18 -25 16 -25 -1 -34 2 -30 11 3 9 -8 13 -38 13 -32 0 -38 3 -27 11 12 8 12
10 -4 7 -29 -4 -32 -28 -4 -29 l23 -1 -25 -9 c-19 -7 -14 -7 18 -4 32 4 43 2
40 -7 -6 -16 -74 -22 -107 -9 -14 6 -62 18 -106 26 -44 8 -98 19 -120 24 -22
6 -78 15 -125 22 -138 18 -262 38 -310 48 -25 6 -73 10 -106 11 -71 0 -126 9
-119 19 2 4 -42 9 -98 10 -56 1 -133 6 -172 11 -159 21 -195 9 -195 -63 0 -53
-20 -170 -31 -182 -5 -5 -9 -73 -9 -151 0 -100 -4 -147 -12 -156 -18 -19 -19
-25 -25 -168 -3 -69 -9 -132 -14 -140 -5 -10 -8 -11 -9 -2 0 6 -7 12 -16 12
-13 0 -14 -3 -5 -14 19 -22 6 -310 -15 -341 -9 -14 -20 -23 -24 -20 -5 3 -11
1 -15 -5 -3 -5 1 -10 11 -10 15 0 16 -11 10 -113 l-7 -113 53 -26 c29 -15 70
-31 90 -38 21 -6 40 -16 43 -21 4 -5 17 -9 31 -9 13 0 24 -4 24 -10 0 -5 21
-15 46 -21 25 -7 48 -17 50 -23 3 -7 16 -13 30 -14 33 -3 44 -10 38 -25 -3 -8
8 -13 36 -13 22 -1 46 -6 52 -12 7 -6 30 -13 50 -17 20 -4 39 -13 42 -21 3 -8
15 -14 27 -14 23 0 55 -13 164 -66 39 -19 76 -34 83 -34 6 0 12 -5 12 -11 0
-6 -9 -9 -19 -6 -15 3 -18 1 -14 -11 4 -10 2 -13 -5 -8 -7 4 -12 14 -12 21 0
16 -30 35 -54 35 -9 0 -16 -5 -16 -11 0 -5 4 -8 9 -4 5 3 12 1 16 -4 3 -6 12
-8 20 -4 9 3 15 -1 15 -11 0 -10 -6 -13 -15 -10 -11 5 -13 2 -9 -10 5 -12 2
-15 -10 -10 -9 3 -16 10 -16 15 0 5 -5 9 -11 9 -5 0 -8 -4 -5 -8 2 -4 1 -14
-4 -22 -7 -11 -13 -10 -35 4 -16 11 -24 23 -21 32 3 9 1 12 -4 9 -16 -10 -12
-20 21 -54 l30 -32 18 20 c22 25 36 27 27 4 -4 -10 -4 -14 0 -10 4 4 15 -4 24
-19 10 -14 20 -25 24 -25 8 1 8 -8 1 -48 -6 -33 -39 -86 -53 -86 -4 0 -6 -6
-6 -12 1 -7 -4 -13 -12 -13 -8 0 -14 8 -14 17 0 15 -1 15 -13 -1 -12 -16 -17
-17 -37 -6 -20 11 -22 10 -17 -4 5 -11 1 -16 -13 -16 -11 0 -20 -4 -20 -10 0
-9 13 -14 31 -12 4 1 9 -7 12 -17 3 -14 -1 -18 -18 -17 -12 0 -20 6 -18 12 2
7 -1 15 -8 19 -7 5 -23 -5 -40 -25 -16 -18 -29 -27 -29 -20 0 23 -13 2 -16
-25 -2 -22 1 -25 19 -20 21 6 21 6 3 -9 -17 -14 -20 -14 -32 2 -7 9 -10 20 -8
24 3 5 1 8 -4 8 -6 0 -12 -7 -16 -15 -3 -8 -1 -15 4 -15 6 0 10 -6 10 -14 0
-8 7 -16 15 -20 32 -12 10 -50 -46 -78 -30 -14 -59 -31 -64 -35 -15 -14 -54
-22 -60 -13 -9 15 -45 19 -45 4 0 -8 7 -14 15 -14 8 0 15 -4 15 -9 0 -15 -31
-22 -69 -16 -29 5 -32 4 -18 -5 27 -17 20 -30 -18 -30 -25 0 -33 -4 -29 -14 3
-9 -4 -16 -22 -20 -31 -8 -84 1 -84 15 0 5 4 8 9 6 5 -1 9 3 9 8 0 6 -4 9 -9
8 -5 -2 -9 2 -9 7 0 6 -7 10 -16 10 -14 0 -14 3 -4 15 9 10 9 15 1 15 -11 0
-15 -13 -12 -38 1 -8 -7 -16 -18 -19 -12 -3 -21 -11 -21 -19 0 -10 -11 -13
-37 -10 -46 4 -63 -2 -63 -20 0 -8 -5 -14 -12 -14 -8 0 -6 -6 5 -17 9 -10 35
-18 59 -19 24 -1 45 -3 48 -3 3 -1 -12 -10 -33 -21 -39 -21 -72 -27 -62 -10 3
6 -1 10 -9 10 -10 0 -15 -8 -13 -22 2 -20 -18 -37 -58 -51 -9 -3 -24 -118 -45
-352 -6 -71 -18 -159 -25 -195 -7 -36 -17 -134 -20 -219 -6 -141 -18 -207 -34
-197 -3 2 -6 -33 -6 -77 0 -45 -3 -109 -6 -142 -9 -87 -38 -288 -44 -303 -2
-7 -7 -58 -11 -115 -7 -103 -21 -170 -25 -117 0 14 -1 32 0 42 1 9 -3 19 -9
23 -5 3 -10 14 -10 24 0 10 -7 25 -16 32 -14 11 -18 10 -30 -5 -14 -20 -10
-41 7 -31 5 3 6 -1 3 -9 -3 -8 -12 -17 -20 -20 -9 -3 -12 -11 -9 -17 5 -7 13
-4 26 7 10 9 19 13 19 9 0 -14 -32 -45 -47 -45 -8 0 -13 -12 -13 -32 1 -30 2
-31 14 -15 9 11 17 14 20 8 4 -6 13 -8 21 -5 8 4 13 10 10 14 -3 5 -1 11 4 14
16 10 24 -73 22 -221 -1 -51 -6 -76 -17 -87 -8 -9 -13 -16 -9 -16 3 0 0 -6 -7
-14 -11 -12 -15 -12 -29 0 -9 9 -24 12 -34 8 -14 -6 -16 -4 -10 6 5 9 4 11 -4
6 -18 -11 8 -39 30 -33 33 9 41 -17 14 -41 -14 -12 -26 -17 -26 -12 -1 6 -2
14 -3 19 0 5 -5 13 -10 18 -5 5 -6 3 -2 -4 4 -7 2 -13 -3 -13 -6 0 -11 -9 -11
-20 0 -11 -4 -20 -10 -20 -5 0 -10 11 -10 24 0 14 -5 28 -12 32 -7 4 -8 3 -4
-4 9 -15 -16 -16 -30 -2 -16 16 -20 -35 -9 -109 5 -32 9 -40 16 -30 6 10 8 5
7 -16 -1 -16 -6 -33 -11 -36 -5 -3 1 -9 13 -12 14 -3 23 0 27 10 5 13 9 11 25
-8 10 -13 16 -17 13 -8 -4 9 0 16 8 16 8 0 14 -14 16 -36 4 -62 11 -47 11 23
0 55 -3 67 -14 63 -23 -9 -28 22 -6 35 11 7 20 16 20 21 0 4 -4 5 -10 2 -5 -3
-10 1 -10 9 0 9 6 16 14 16 7 0 17 10 22 23 13 36 16 -169 4 -243 -7 -36 -17
-126 -24 -200 -14 -143 -23 -182 -37 -158 -6 10 -11 9 -23 -7 -14 -18 -15 -18
-16 -2 0 9 5 17 10 17 6 0 9 3 9 8 -1 4 -1 14 1 22 1 11 4 9 9 -5 6 -13 9 3 9
47 0 63 -1 67 -18 58 -31 -17 -47 -11 -25 8 11 10 21 24 23 32 1 8 -6 4 -16
-9 l-19 -24 -5 27 c-3 14 -2 26 2 26 4 0 5 11 2 25 -8 46 -28 25 -23 -25 2
-13 1 -13 -8 0 -5 8 -7 18 -4 23 3 5 -4 3 -16 -5 -12 -7 -21 -20 -22 -28 0 -8
-5 -4 -10 10 -6 13 -15 28 -22 32 -9 6 -9 8 0 8 6 0 15 -4 18 -10 3 -5 13 -10
22 -10 13 0 13 3 3 15 -10 12 -10 15 4 15 23 0 20 21 -4 27 -11 3 -20 10 -20
15 0 5 9 6 20 3 22 -7 23 -5 14 19 -7 18 -34 22 -34 5 0 -5 -4 -7 -10 -4 -5 3
-11 -2 -11 -12 -1 -17 -2 -17 -6 0 -2 9 -9 15 -14 11 -5 -3 -7 -10 -4 -15 3
-5 -1 -6 -10 -2 -9 3 -12 9 -7 12 5 3 11 12 14 20 2 8 12 15 21 17 9 1 15 -2
11 -7 -7 -12 7 -11 26 1 12 7 12 10 1 10 -9 0 -11 7 -8 23 4 12 2 29 -3 37 -9
13 -10 13 -11 0 0 -8 -5 -1 -10 17 -7 22 -14 31 -24 27 -11 -5 -15 1 -15 20 0
14 5 26 10 26 6 0 10 -7 10 -15 0 -8 5 -15 10 -15 6 0 10 -7 10 -15 0 -8 5
-15 11 -15 6 0 9 7 6 15 -4 8 -2 17 3 20 16 10 11 22 -10 28 -12 3 -20 14 -20
27 0 14 -4 19 -12 14 -7 -4 -4 3 7 16 11 13 14 20 8 16 -8 -4 -13 -1 -13 9 0
9 4 14 9 11 5 -3 11 1 14 9 4 10 1 12 -10 8 -13 -5 -13 -3 -4 15 14 26 14 32
0 32 -5 0 -7 -4 -4 -10 3 -5 2 -10 -4 -10 -5 0 -9 12 -8 28 1 15 6 26 10 25 4
-2 14 -3 23 -3 12 0 15 -6 10 -24 -6 -25 1 -27 37 -11 9 4 17 11 17 17 0 5 -4
7 -8 4 -5 -3 -9 1 -9 9 0 18 14 20 19 4 3 -9 11 -8 28 2 14 7 32 12 40 10 12
-2 12 0 3 10 -9 8 -16 9 -25 2 -7 -6 -22 -7 -33 -3 -25 9 -45 2 -45 -17 0 -8
-5 -11 -10 -8 -6 4 -8 10 -5 15 3 4 -2 10 -10 14 -8 3 -15 0 -16 -7 0 -7 -4
-3 -9 8 -5 11 -9 14 -9 7 -1 -7 -6 -10 -11 -7 -6 3 -8 24 -5 46 4 29 1 41 -10
45 -8 4 -15 14 -15 23 0 9 -6 23 -12 29 -10 10 -10 15 -1 20 18 11 -8 48 -34
47 -13 0 -23 3 -23 8 -1 51 1 58 13 51 6 -4 9 -4 5 1 -4 4 3 16 15 26 12 10
18 18 13 19 -15 0 -75 -58 -68 -66 4 -4 1 -4 -5 0 -18 10 -16 26 2 26 8 0 15
5 15 10 0 6 -6 10 -14 10 -8 0 -18 5 -22 12 -4 6 -3 8 4 4 6 -3 13 -2 17 4 4
6 10 8 14 6 4 -3 8 7 9 22 1 15 7 29 12 30 6 2 10 10 10 18 0 12 -4 12 -20 2
-11 -7 -22 -19 -25 -26 -2 -7 0 -10 5 -7 6 3 10 0 10 -8 0 -10 -7 -13 -19 -10
-13 3 -21 -2 -26 -17 -4 -12 -5 -24 -2 -27 3 -2 1 -18 -3 -34 -5 -16 -5 -27 0
-24 4 3 10 -2 14 -10 3 -9 0 -15 -9 -15 -8 0 -15 -6 -15 -12 0 -9 -3 -9 -9 1
-5 8 -12 62 -16 120 -4 58 -11 111 -17 117 -5 7 -11 34 -13 60 -14 154 -14
164 1 164 8 0 13 -3 13 -7 -5 -29 3 -41 21 -36 11 3 26 1 33 -5 10 -8 13 -6
13 8 0 10 -4 16 -8 14 -4 -3 -5 8 -2 24 4 19 1 34 -10 45 -23 22 -20 34 3 13
10 -10 27 -16 37 -14 11 2 19 -3 20 -12 2 -34 4 -40 12 -40 11 0 12 69 1 75
-15 10 2 33 21 28 14 -4 18 0 15 14 -3 20 -24 19 -40 -2 -8 -9 -16 -10 -28 -3
-10 5 -23 7 -30 5 -7 -3 0 -8 16 -12 25 -7 39 -35 18 -35 -21 0 -40 13 -34 23
4 6 -2 8 -15 5 -26 -7 -28 8 -7 36 19 25 19 37 0 30 -15 -6 -20 5 -16 35 2 7
-2 10 -8 6 -6 -3 -11 -1 -11 5 0 7 -6 5 -15 -4 -17 -17 -17 -77 0 -88 6 -5 6
-8 -2 -8 -7 0 -13 -9 -13 -20 0 -11 4 -20 9 -20 5 0 12 -7 15 -16 3 -8 2 -12
-4 -9 -6 3 -10 -1 -10 -9 0 -9 -4 -16 -9 -16 -9 0 -15 28 -26 130 -4 30 -16
118 -28 195 -12 77 -21 181 -22 232 0 50 -3 86 -7 80 -13 -22 -20 3 -29 115
-6 62 -17 136 -25 163 -9 32 -13 87 -12 153 1 74 -2 106 -12 115 -10 9 -11 9
-6 0 4 -7 3 -13 -2 -13 -20 0 -32 252 -13 264 12 7 21 -18 21 -55 0 -20 4 -28
12 -23 7 5 8 3 3 -6 -10 -16 -13 -130 -2 -123 4 2 7 -6 7 -18 0 -35 13 -14 17
28 2 21 5 47 6 57 3 25 43 29 65 7 15 -15 15 -15 9 2 -4 11 -2 17 8 17 8 0 15
7 15 16 0 8 -4 13 -9 10 -5 -4 -12 0 -15 6 -3 7 -4 4 -3 -6 1 -13 -5 -20 -20
-21 -24 -2 -24 0 -23 110 0 3 -13 19 -30 36 -21 23 -27 36 -21 47 6 11 4 20
-7 30 -10 7 -12 11 -5 8 18 -10 28 16 9 26 -9 5 -16 14 -16 21 0 7 4 6 10 -3
8 -13 10 -13 10 1 0 9 -7 19 -15 23 -9 3 -15 18 -15 36 0 21 -5 30 -16 30 -12
0 -14 -4 -7 -12 6 -8 7 -37 4 -70 -5 -38 -3 -58 3 -59 6 0 5 -3 -1 -6 -8 -2
-13 -22 -13 -44 0 -24 -4 -38 -10 -34 -5 3 -10 41 -10 83 0 42 -7 96 -15 120
-20 57 -33 286 -16 296 7 4 10 2 9 -5 -2 -6 8 -12 23 -13 19 -1 25 4 27 19 1
14 -1 16 -7 7 -6 -10 -10 -8 -14 7 -3 12 -1 21 5 21 5 0 6 5 3 10 -4 6 -11 8
-16 5 -5 -4 -9 18 -9 50 0 31 -5 65 -10 76 -8 14 -7 19 3 19 12 0 16 23 16 93
1 19 4 26 12 21 9 -5 10 -2 5 12 -5 10 -10 28 -13 39 -4 16 -3 17 6 5 6 -8 11
-10 11 -4 0 6 -6 17 -14 23 -8 7 -12 22 -9 34 3 16 2 18 -5 8 -8 -11 -12 -9
-22 9 -6 12 -9 24 -6 28 3 3 6 0 6 -6 0 -7 10 -12 22 -12 l22 0 -22 16 c-21
14 -33 52 -12 39 14 -9 12 9 -2 24 -11 10 -10 12 1 9 7 -2 16 3 18 10 3 7 1
11 -4 10 -4 -2 -19 5 -32 14 -20 14 -22 18 -9 23 10 4 14 14 11 26 -6 23 -19
25 -27 4 -3 -8 -11 -15 -18 -15 -10 0 -10 2 1 9 9 6 10 11 2 15 -6 4 -9 12 -5
17 3 5 0 16 -6 24 -8 10 -9 15 -2 15 6 0 9 7 5 16 -5 14 -8 12 -19 -7 -7 -13
-9 -28 -5 -32 5 -4 5 -26 1 -47 -4 -21 -3 -45 1 -52 12 -17 11 -31 0 -23 -5 3
-13 -5 -17 -17 -7 -21 -8 -20 -15 12 -5 19 -9 83 -10 142 -1 69 -5 106 -12
105 -14 -3 -23 54 -30 175 -3 53 -9 103 -14 110 -4 7 -13 63 -19 123 -12 117
-5 144 28 105 20 -24 28 -25 28 -4 0 14 3 14 18 3 16 -12 16 -12 0 5 -11 13
-14 25 -8 40 7 19 4 22 -18 21 -14 0 -27 7 -29 15 -4 13 -3 13 6 0 6 -8 11
-10 11 -4 0 7 11 9 25 6 18 -3 25 0 25 12 0 9 7 19 15 22 8 4 12 10 9 15 -3 5
-10 7 -15 4 -5 -4 -9 1 -9 9 0 10 -6 13 -15 10 -8 -4 -15 -1 -15 5 0 6 5 11
10 11 6 0 10 5 10 10 0 6 -7 10 -15 10 -8 0 -15 4 -15 9 0 5 -8 12 -17 15 -23
9 -44 -21 -42 -59 3 -67 -2 -125 -10 -125 -9 0 -20 81 -22 170 -3 79 0 87 25
92 21 4 23 2 20 -31 -2 -20 -1 -30 2 -23 5 10 10 9 25 -4 18 -16 19 -16 19 5
0 12 -7 24 -16 28 -15 6 -15 7 -1 18 10 7 14 20 10 34 -4 17 -8 19 -14 9 -7
-10 -9 -9 -9 5 0 9 5 17 10 17 6 0 10 5 10 11 0 5 -4 7 -10 4 -5 -3 -10 0 -10
7 0 10 -2 10 -9 -1 -5 -8 -7 -20 -4 -27 6 -16 -14 -28 -23 -13 -4 8 -3 9 4 5
7 -4 12 -3 12 2 0 16 -13 22 -27 11 -18 -16 -17 -1 2 18 8 8 12 19 9 25 -4 6
-3 8 3 5 5 -3 16 2 24 11 17 20 95 24 92 5 -2 -8 7 -12 21 -11 14 1 22 6 20
10 -3 5 -10 6 -15 3 -5 -4 -9 -1 -9 4 0 6 7 11 16 11 8 0 12 5 9 10 -3 6 2 11
12 11 17 1 17 2 0 6 -10 2 -17 10 -16 16 3 27 -2 47 -12 47 -5 0 -7 -5 -3 -11
4 -8 0 -9 -15 -4 -17 5 -21 2 -20 -17 0 -22 1 -22 9 -3 l9 20 1 -20 c1 -11 4
-14 7 -7 12 30 23 3 14 -37 -1 -2 -8 2 -16 9 -9 7 -18 10 -22 6 -3 -3 -1 -6 5
-6 7 0 12 -4 12 -9 0 -5 -9 -7 -20 -4 -11 3 -18 9 -15 12 7 12 -29 9 -37 -3
-5 -7 -8 -7 -8 3 0 7 -6 11 -13 8 -14 -5 -39 17 -30 27 4 3 -7 6 -23 6 -27 -1
-28 -2 -11 -14 12 -10 15 -16 7 -21 -8 -5 -10 -32 -6 -82 4 -69 3 -74 -11 -60
-11 11 -17 43 -21 112 l-5 96 24 -5 c41 -7 59 -18 59 -32 0 -12 4 -12 19 -2
11 7 17 16 15 20 -3 5 -10 5 -16 2 -6 -4 -9 -1 -6 7 3 8 18 13 37 13 17 -1 31
2 31 8 0 5 -4 7 -9 4 -5 -3 -11 1 -14 8 -3 8 -1 16 5 18 5 2 2 10 -8 18 -10 8
-15 10 -11 4 4 -7 0 -14 -8 -17 -9 -4 -12 -1 -8 9 3 7 0 14 -6 14 -8 0 -11 12
-8 33 3 20 -2 39 -12 51 -9 11 -10 16 -3 12 7 -4 12 -1 12 9 0 10 -5 13 -11 9
-8 -5 -10 1 -7 19 4 19 0 27 -14 30 -10 3 -21 1 -24 -4 -3 -5 -10 -7 -15 -4
-5 4 -9 0 -9 -8 0 -8 7 -18 16 -21 8 -3 12 -2 9 4 -3 6 1 10 9 10 10 0 15 -8
14 -24 -2 -20 -7 -23 -29 -19 -24 3 -26 1 -24 -27 1 -17 -1 -33 -6 -36 -5 -3
-9 -15 -9 -27 0 -17 -3 -18 -12 -9 -8 8 -13 46 -13 108 -1 69 -5 98 -14 104
-11 6 -9 10 6 19 11 5 23 8 26 5 3 -3 8 0 12 6 5 8 -5 11 -36 9 -35 -3 -44 0
-47 14 -4 20 -22 22 -41 5 -11 -11 -13 -10 -8 5 4 9 2 17 -2 17 -5 0 -11 -5
-13 -11 -2 -6 -14 -8 -31 -4 -27 7 -28 8 -10 29 13 14 13 17 2 8 -9 -6 -19 -9
-22 -5 -4 3 -7 -3 -7 -15 0 -15 -5 -20 -15 -16 -8 4 -13 10 -10 14 3 4 -2 13
-10 20 -8 7 -15 9 -15 4 0 -8 -55 -11 -62 -4 -2 1 -17 3 -35 5 -20 2 -33 -2
-37 -11 -3 -8 -1 -14 4 -14 5 0 7 -7 4 -15 -4 -8 -2 -15 4 -15 5 0 12 9 15 21
5 18 8 19 20 8 8 -8 13 -17 11 -21 -3 -4 5 -6 16 -5 11 1 20 5 20 11 0 5 9 1
20 -9 18 -16 25 -14 21 8 -1 4 9 2 21 -5 13 -7 34 -13 48 -14 37 -3 38 -4 10
-15 -38 -16 -259 -11 -326 7 -32 8 -101 17 -154 20 -183 9 -195 12 -198 39 -1
13 3 27 8 30 16 10 -12 33 -34 27 -12 -3 -17 -1 -14 8 2 7 14 14 26 15 11 1
19 -2 16 -7 -7 -11 29 -6 37 5 3 4 12 0 20 -9 9 -12 10 -15 2 -10 -7 4 -17 5
-23 1 -13 -8 -1 -36 15 -33 7 2 22 -8 33 -22 l21 -25 -6 38 c-5 31 -3 37 13
38 19 2 41 5 58 8 5 0 2 8 -5 18 -13 15 -12 15 6 6 31 -16 93 15 65 32 -6 4
-9 1 -8 -7 3 -15 -78 -19 -98 -5 -16 11 -44 -2 -45 -22 0 -14 -1 -14 -7 0 -5
11 -21 15 -54 15 -27 -1 -48 1 -48 4 0 6 -24 9 -67 11 -13 1 -23 3 -23 6 0 11
26 29 36 26 16 -5 26 25 12 33 -6 4 -22 -6 -35 -22 -20 -26 -29 -26 -24 0 1 5
-9 2 -23 -8 -29 -18 -40 -21 -31 -6 3 6 -6 15 -20 20 -16 6 -23 14 -19 22 4 6
3 8 -4 4 -6 -3 -14 -1 -18 5 -5 8 -8 8 -14 -1 -5 -8 -9 -8 -13 3 -4 12 1 15
22 15 39 -1 55 10 41 27 -13 16 15 80 30 70 6 -4 10 -1 10 4 0 6 -5 11 -11 11
-6 0 -3 7 5 16 9 8 13 21 9 27 -4 7 2 5 12 -3 11 -9 16 -10 11 -2 -5 8 0 12
13 12 12 0 21 7 21 15 0 18 -46 21 -53 3 -3 -8 -6 -5 -6 6 -1 13 -6 17 -21 13
-17 -4 -18 -2 -9 14 5 11 20 19 35 19 13 0 27 7 30 15 3 8 26 17 50 21 24 3
47 10 50 15 3 5 15 9 27 9 12 1 40 9 62 20 22 11 52 19 67 20 14 0 28 5 30 12
3 8 33 14 81 16 58 3 77 8 77 18 0 19 41 34 95 34 29 0 45 5 49 15 3 10 19 15
48 15 25 0 60 9 82 21 22 11 64 23 95 26 31 3 63 12 71 19 9 8 44 14 85 15 40
1 79 8 91 16 12 8 73 23 135 34 63 11 148 27 189 34 41 8 94 14 118 15 23 0
58 6 77 14 18 8 76 17 127 21 51 4 116 13 143 20 28 7 121 16 208 20 168 7
190 9 210 22 27 17 1246 24 1405 7z m-3124 -1687 c13 -10 16 -20 12 -35 l-7
-22 -556 2 c-524 3 -556 4 -567 21 -9 15 -7 21 8 33 28 20 1082 21 1110 1z
m-5 -236 c20 -13 28 -126 11 -146 -11 -13 -85 -15 -555 -15 -299 0 -550 3
-559 6 -24 9 -23 139 2 153 22 13 1081 15 1101 2z m6 -256 c0 -20 -8 -20 -549
-23 -344 -1 -553 1 -559 7 -7 7 -6 16 3 26 11 13 75 15 559 13 538 -3 546 -3
546 -23z m3 -107 c7 -7 12 -21 12 -32 -1 -50 20 -49 -570 -47 -304 1 -557 4
-561 7 -10 6 -12 45 -3 68 6 14 64 16 558 16 416 0 555 -3 564 -12z m-3 -158
l0 -25 -553 -3 c-485 -2 -553 0 -558 13 -4 8 -4 22 0 30 5 13 73 15 558 13
l553 -3 0 -25z m3 -232 c15 -15 16 -63 2 -89 -10 -18 -27 -19 -551 -19 -353 0
-547 4 -560 10 -14 8 -19 21 -19 54 0 23 3 46 7 49 3 4 254 7 558 7 415 0 554
-3 563 -12z m2 -243 l0 -25 -512 -1 c-282 0 -522 -2 -532 -4 -35 -7 -76 7 -76
25 0 9 3 20 7 23 3 4 255 7 560 7 l553 0 0 -25z m-2 -87 c7 -7 12 -21 12 -33
0 -12 -5 -26 -12 -33 -16 -16 -1079 -17 -1109 -2 -22 12 -27 65 -6 73 6 3 257
6 557 6 412 1 549 -2 558 -11z m307 -118 l0 -65 -99 -3 c-73 -2 -102 1 -108
10 -10 16 -11 112 -1 122 4 4 52 5 107 4 l101 -3 0 -65z m-327 -6 c22 -6 30
-28 14 -38 -5 -3 -255 -6 -557 -6 -446 -1 -549 1 -556 12 -23 36 10 38 550 38
289 0 536 -3 549 -6z m20 -166 c7 -7 12 -30 12 -53 0 -23 -5 -46 -12 -53 -16
-16 -1079 -17 -1109 -2 -26 14 -27 94 -1 109 26 16 1094 15 1110 -1z m6 -289
c5 -14 6 -38 2 -53 l-6 -26 -563 2 -562 3 -3 40 c-3 29 1 43 14 52 14 11 129
13 563 11 l546 -3 9 -26z m-26 -136 c17 -4 22 -11 20 -27 l-3 -21 -555 0 -555
0 -3 22 c-2 14 3 23 15 26 25 7 1052 7 1081 0z m23 -267 c7 -14 9 -36 5 -50
l-6 -26 -553 0 c-417 0 -556 3 -565 12 -7 7 -12 24 -12 38 0 14 5 31 12 38 9
9 147 12 560 12 l548 0 11 -24z m-6 -151 c0 -20 -7 -20 -545 -22 -305 -2 -551
1 -559 6 -8 5 -11 16 -8 25 6 15 59 16 559 14 545 -3 553 -3 553 -23z m4886
-17 c12 -16 18 -39 19 -73 0 -59 5 -67 48 -89 45 -23 86 -88 78 -122 -7 -25
-9 -26 -59 -21 -44 4 -56 10 -77 37 -14 18 -42 52 -62 77 -22 25 -38 55 -38
69 0 30 50 144 63 144 5 0 17 -10 28 -22z m-4886 -108 c0 -13 -68 -15 -540
-17 -298 -2 -546 1 -554 6 -45 29 7 31 547 29 478 -3 547 -5 547 -18z m4799
-191 c20 -16 26 -29 26 -60 0 -33 6 -46 36 -73 43 -39 41 -63 -6 -72 -16 -4
-35 -13 -42 -21 -19 -23 -48 -114 -48 -151 0 -44 -35 -102 -61 -102 -14 0 -27
15 -44 53 -29 61 -30 78 -10 117 21 41 40 232 26 270 -8 26 -7 32 12 45 30 21
80 19 111 -6z m349 -298 c18 -18 48 -34 80 -42 89 -21 164 -119 143 -187 -16
-49 -94 -27 -162 46 -24 26 -59 63 -77 82 -17 19 -44 43 -59 53 -32 20 -35 33
-11 59 23 26 54 22 86 -11z m-5145 -85 c11 -11 13 -86 3 -105 l-12 -21 -557 2
-557 3 -3 39 c-6 72 2 85 56 88 66 4 1065 -2 1070 -6z m293 -66 c15 -9 19 -22
19 -63 0 -80 -9 -86 -115 -84 -83 2 -90 4 -93 23 -3 24 27 34 103 34 27 0 45
5 48 14 10 25 -16 36 -85 36 -61 0 -68 2 -68 20 0 17 8 20 83 23 45 1 83 4 85
5 2 1 12 -3 23 -8z m4850 -102 c24 -29 49 -61 54 -72 6 -12 24 -25 40 -31 41
-13 45 -21 45 -85 0 -66 -26 -127 -68 -161 -32 -26 -67 -88 -86 -153 -16 -55
-39 -57 -87 -10 -51 50 -56 78 -25 153 27 63 33 115 16 126 -18 11 -10 42 15
59 30 20 32 42 4 65 -30 24 -44 107 -24 138 27 40 65 31 116 -29z m-5141 -63
c7 -8 10 -22 6 -30 -5 -13 -75 -15 -566 -15 -491 0 -561 2 -566 15 -4 8 -1 22
6 30 19 23 1101 23 1120 0z m-5 -125 l0 -25 -535 -3 c-294 -1 -545 0 -557 3
-22 5 -31 33 -16 48 3 4 254 6 557 5 l551 -3 0 -25z m4620 -98 c12 -32 27 -54
46 -65 16 -9 29 -23 29 -32 0 -8 5 -15 11 -15 6 0 23 -13 37 -28 26 -27 98
-53 182 -67 54 -9 117 -71 130 -130 8 -34 6 -37 -31 -62 l-38 -25 -56 47 c-31
27 -59 53 -63 59 -4 6 -30 30 -57 53 -28 23 -57 54 -65 69 -13 25 -32 49 -61
79 -5 6 -15 16 -22 23 -6 8 -31 32 -54 55 -47 44 -58 87 -24 87 14 0 24 -14
36 -48z m-4607 -189 c5 -137 70 -124 -576 -121 l-557 3 -3 89 c-2 49 -1 95 2
103 5 11 106 13 568 11 l563 -3 3 -82z m5443 64 c8 -7 32 -37 51 -67 20 -30
61 -79 91 -108 48 -46 56 -60 62 -103 5 -35 13 -53 27 -60 15 -8 19 -17 14
-39 -4 -22 0 -32 19 -44 17 -11 25 -26 25 -46 0 -20 11 -39 35 -63 22 -22 35
-43 35 -60 0 -17 9 -32 26 -43 23 -15 25 -21 18 -58 -3 -23 -13 -50 -20 -61
-8 -11 -14 -32 -14 -48 0 -16 -5 -38 -12 -50 -6 -12 -13 -57 -14 -99 -2 -94
-7 -102 -42 -84 -45 23 -92 90 -92 130 0 53 -16 86 -42 86 -40 0 -65 11 -77
33 -7 12 -29 32 -49 45 -64 39 -93 103 -92 196 0 55 3 62 33 87 38 33 72 37
87 10 14 -28 13 -38 -10 -61 -28 -28 -60 -86 -60 -108 1 -36 43 -71 100 -82
98 -19 147 8 134 74 -3 20 -16 44 -28 54 -11 9 -36 35 -55 56 l-33 39 28 15
c29 14 54 39 54 54 0 7 -27 15 -103 32 -15 4 -42 20 -59 36 -29 28 -36 30
-109 30 -71 0 -79 -2 -97 -25 l-20 -25 -38 35 c-25 23 -35 38 -28 45 10 10
127 14 215 6 47 -4 59 -2 74 14 22 25 14 50 -39 109 -23 26 -48 62 -55 79 -13
30 -12 35 9 57 27 28 29 29 51 12z m803 -519 c8 -13 17 -34 21 -48 3 -15 26
-39 57 -60 44 -30 54 -43 70 -94 24 -72 17 -118 -20 -156 -31 -31 -72 -86 -72
-96 0 -4 -16 -22 -36 -40 -35 -34 -67 -43 -79 -23 -14 21 -30 2 -27 -32 2 -25
-3 -40 -17 -53 -12 -11 -21 -25 -21 -32 0 -7 -16 -26 -35 -41 -19 -15 -35 -34
-35 -41 0 -7 -11 -17 -25 -24 -15 -6 -27 -23 -31 -41 -3 -17 -13 -37 -20 -45
-8 -7 -14 -27 -14 -43 0 -37 -27 -50 -46 -24 -12 16 -12 22 0 40 7 11 14 33
14 48 0 32 18 57 41 57 22 0 39 47 34 94 -3 30 3 49 27 85 16 26 30 52 30 56
0 5 7 16 15 25 9 10 25 44 36 76 23 67 40 97 77 137 14 15 36 51 48 79 19 46
20 56 9 79 -8 14 -21 32 -30 39 -23 19 -37 58 -30 81 9 26 41 24 59 -3z
m-6256 -452 c2 -10 -2 -22 -10 -27 -15 -10 -1050 -12 -1085 -3 -13 4 -23 12
-23 18 0 35 14 36 569 34 525 -3 546 -4 549 -22z m-3 -116 l0 -25 -535 -3
c-294 -1 -545 0 -557 3 -13 3 -23 11 -23 18 0 37 12 37 570 35 l545 -3 0 -25z
m1397 -87 c-2 -38 -7 -115 -11 -173 -8 -99 -7 -106 13 -122 15 -12 33 -15 71
-11 38 4 58 1 84 -14 86 -48 59 -87 -51 -76 -63 5 -71 4 -93 -17 -20 -19 -25
-33 -25 -76 0 -51 1 -53 33 -63 19 -7 40 -9 48 -6 19 7 54 -19 45 -33 -4 -7
-23 -12 -42 -12 -36 0 -73 -15 -86 -34 -4 -6 -7 -88 -5 -183 2 -188 -4 -213
-43 -178 -16 15 -20 31 -20 82 0 35 -6 79 -14 97 -7 18 -17 57 -21 87 -9 69
-29 107 -59 115 -38 9 -40 33 -5 52 26 15 30 21 26 52 -14 104 -36 311 -39
352 l-3 46 32 -13 c17 -7 34 -10 38 -7 4 4 5 0 3 -8 -2 -10 4 -14 17 -12 15 2
17 1 6 -7 -8 -5 -11 -16 -8 -26 4 -9 3 -14 -2 -11 -4 3 -13 -6 -19 -19 -9 -19
-8 -23 1 -19 7 2 13 -4 14 -16 1 -11 -2 -18 -8 -15 -5 4 -9 2 -9 -4 0 -23 20
-19 36 8 10 17 23 27 31 24 19 -7 16 4 -7 29 -21 23 -26 38 -11 38 5 0 11 -10
15 -22 4 -18 8 -20 18 -10 14 14 21 135 7 127 -5 -4 -9 6 -9 20 0 14 4 24 9
21 10 -7 8 55 -3 72 -11 17 2 32 28 32 21 0 22 -3 18 -67z m-1387 -43 c4 -16
4 -39 0 -50 -6 -20 -13 -20 -555 -20 -302 0 -555 3 -564 6 -19 7 -22 64 -4 82
9 9 148 12 564 12 l552 0 7 -30z m4713 -76 c20 -14 22 -24 22 -103 0 -73 -3
-91 -19 -105 -12 -11 -21 -38 -25 -79 -6 -47 -14 -69 -33 -89 -25 -26 -25 -30
-12 -55 7 -16 14 -50 15 -78 1 -27 5 -94 9 -147 7 -85 6 -98 -7 -98 -26 0 -36
22 -46 109 -7 59 -7 91 1 108 8 18 8 33 -1 57 -7 19 -12 88 -12 163 0 168 -4
189 -41 202 -62 21 -20 87 75 117 53 16 48 16 74 -2z m-1798 -34 c6 -11 9 -78
8 -167 -3 -147 4 -183 36 -206 6 -4 59 -6 117 -5 100 3 108 1 146 -24 37 -24
41 -31 57 -105 9 -43 14 -91 12 -108 -3 -16 -8 -47 -11 -67 -3 -22 -12 -38
-19 -38 -10 0 -17 26 -26 88 -15 116 -20 131 -52 155 -26 19 -32 20 -94 8 -72
-15 -122 -36 -141 -60 -9 -11 -11 -41 -6 -102 5 -81 4 -88 -15 -98 -33 -18
-97 -14 -116 8 -14 15 -15 26 -7 62 5 24 12 105 16 181 6 117 4 141 -11 169
-9 18 -19 62 -22 97 -4 57 -8 64 -33 78 -41 21 -41 72 1 102 16 12 35 22 42
22 7 0 22 7 32 15 28 22 73 19 86 -5z m-2925 -20 c3 -6 3 -19 0 -30 -6 -20
-16 -20 -549 -20 -469 0 -545 2 -556 15 -7 8 -10 22 -6 30 5 13 74 15 555 15
359 0 552 -4 556 -10z m205 -10 c26 -26 54 -25 73 3 22 32 39 10 35 -44 -3
-39 -6 -44 -29 -47 -14 -2 -31 4 -39 12 -7 9 -18 16 -25 16 -7 0 -18 7 -25 15
-21 26 -48 18 -55 -16 -10 -44 -39 -35 -43 13 -2 28 2 40 20 52 31 22 64 20
88 -4z m2148 -2 c7 -7 27 -17 44 -22 38 -13 60 -58 40 -78 -10 -10 -17 -10
-33 1 -29 17 -36 7 -48 -67 -6 -35 -15 -70 -22 -78 -6 -8 -13 -35 -14 -61 -2
-27 -6 -61 -11 -77 -5 -22 -3 -32 11 -43 28 -20 66 -17 72 6 5 19 17 25 95 50
57 18 153 22 175 6 17 -13 17 -14 -1 -33 -18 -21 -97 -49 -150 -54 -16 -2 -35
-12 -43 -25 -14 -21 -13 -23 19 -37 18 -8 50 -31 72 -50 21 -20 46 -36 55 -36
16 0 81 -52 81 -65 0 -4 -5 -15 -10 -26 -10 -18 -13 -18 -40 -4 -17 9 -30 20
-30 26 0 15 -59 69 -75 69 -7 0 -24 9 -37 20 -14 11 -36 24 -49 30 -13 5 -31
14 -39 20 -37 23 -91 42 -106 36 -13 -5 -15 -15 -10 -49 18 -120 18 -121 -4
-150 -12 -15 -30 -27 -40 -27 -33 0 -42 25 -36 97 10 113 10 135 -5 213 -8 41
-16 131 -18 199 l-3 124 49 48 c49 48 87 61 111 37z m-2350 -121 l3 -27 -558
2 c-537 3 -558 4 -561 22 -2 10 2 22 10 27 7 5 258 8 558 6 l545 -2 3 -28z
m-4 -209 c11 -16 16 -46 16 -101 0 -130 64 -117 -568 -117 -413 0 -551 3 -560
12 -8 8 -12 46 -12 104 0 85 2 94 22 108 20 14 89 16 555 16 l532 0 15 -22z
m1790 7 c11 -8 41 -15 67 -15 71 0 94 -15 123 -80 14 -32 26 -61 26 -65 0 -4
16 -28 36 -51 60 -74 20 -113 -60 -59 -49 33 -79 32 -121 -7 -86 -77 -160 -97
-216 -57 -43 31 -52 55 -56 153 -2 68 1 96 12 113 9 13 20 23 26 23 5 0 15 5
22 11 22 18 82 47 102 47 11 1 29 -5 39 -13z m1784 -30 c25 -29 51 -31 93 -10
43 23 124 24 145 3 29 -28 12 -46 -39 -41 -49 6 -86 -9 -137 -56 -32 -28 -32
-31 -28 -98 5 -66 -6 -113 -25 -113 -5 0 -25 -8 -44 -17 -60 -28 -68 -15 -69
116 -1 89 -6 120 -20 147 -21 39 -14 60 27 81 38 20 73 15 97 -12z m486 9 c13
-5 14 -17 9 -65 -4 -46 -2 -64 12 -85 18 -29 8 -28 152 -8 53 8 98 49 113 103
22 82 65 61 55 -26 -4 -33 -1 -69 9 -103 15 -50 13 -80 -5 -80 -5 0 -23 14
-41 30 -17 17 -40 30 -50 30 -29 0 -111 -22 -126 -33 -17 -13 -162 -27 -188
-17 -33 13 -51 50 -58 127 l-7 71 33 31 c32 30 60 37 92 25z m-3741 -236 c9
-67 -2 -78 -82 -78 -38 0 -83 -3 -100 -6 -26 -6 -32 -3 -40 17 -14 39 3 49 86
49 73 0 74 0 84 30 17 46 45 40 52 -12z m-312 -154 c9 -11 10 -20 2 -32 -9
-15 -59 -17 -546 -20 -333 -1 -545 2 -561 8 -30 11 -34 34 -8 49 11 7 209 10
558 11 482 0 543 -2 555 -16z m7098 -820 c27 -63 90 -123 156 -151 25 -10 45
-20 45 -23 0 -3 -25 -16 -56 -29 -63 -27 -123 -90 -151 -156 -10 -25 -20 -45
-23 -45 -3 0 -16 25 -29 56 -27 63 -90 123 -156 151 -25 10 -45 20 -45 23 0 3
25 16 56 29 63 27 123 90 151 156 10 25 20 45 23 45 3 0 16 -25 29 -56z"/>
<path d="M4557 7713 c3 -24 2 -25 -6 -8 -9 19 -10 19 -10 -3 -1 -18 -7 -22
-28 -22 -34 0 -63 -2 -63 -6 0 -1 7 -9 15 -18 13 -13 12 -14 -12 -12 -19 2
-29 10 -30 22 -3 17 -2 17 7 -1 l10 -20 -3 20 c-2 14 -9 19 -22 17 -29 -6 -32
-12 -12 -27 17 -12 17 -14 1 -23 -11 -6 -13 -11 -5 -16 6 -4 11 -3 11 1 0 15
41 13 46 -2 3 -8 12 -11 20 -8 8 3 14 0 14 -6 0 -6 -6 -12 -12 -12 -7 -1 -20
-2 -28 -3 -8 -1 -21 3 -29 9 -12 8 -12 6 -2 -15 l12 -25 -20 24 c-14 15 -21
18 -21 9 0 -8 5 -19 12 -26 9 -9 9 -12 -1 -12 -9 0 -8 -4 3 -15 17 -17 30 -20
20 -4 -5 8 -1 8 13 0 17 -8 22 -6 32 15 6 14 16 22 21 19 15 -9 12 -27 -2 -19
-8 4 -10 3 -5 -2 5 -5 12 -9 15 -9 4 0 13 -4 20 -8 6 -5 12 -4 12 2 0 5 -6 12
-12 15 -7 4 -2 4 10 2 13 -3 21 -2 18 1 -3 3 1 12 9 20 17 17 20 59 5 68 -5 3
-10 14 -9 23 0 14 2 14 8 -2 6 -15 9 -16 13 -5 7 19 -2 89 -12 89 -4 0 -6 -12
-3 -27z"/>
<path d="M6754 4818 c1 -21 6 -41 9 -45 14 -13 6 -24 -12 -18 -11 3 -23 0 -27
-7 -4 -6 -2 -14 4 -16 7 -2 12 -10 12 -19 0 -9 7 -13 18 -11 9 2 16 9 15 14
-1 6 5 11 13 11 8 0 13 -6 10 -12 -2 -7 0 -17 6 -23 8 -8 5 -9 -10 -6 -11 3
-31 0 -43 -7 -33 -18 -57 -21 -65 -7 -4 7 -3 8 4 4 8 -5 10 -1 5 10 -5 13 -3
15 8 9 8 -5 11 -4 6 1 -11 11 -68 14 -61 3 2 -4 11 -6 19 -2 17 6 19 -5 5 -27
-8 -13 -10 -13 -10 0 0 10 -3 11 -11 3 -6 -6 -18 -9 -26 -6 -8 3 -21 -3 -29
-13 -9 -11 -13 -13 -9 -6 3 6 2 12 -4 12 -15 0 -23 -18 -9 -22 6 -2 8 -10 4
-17 -6 -9 -11 -9 -24 1 -15 11 -15 11 -4 -3 7 -10 21 -15 32 -12 11 3 20 0 20
-6 0 -6 10 -9 23 -7 12 3 25 5 29 5 4 1 5 8 2 16 -4 8 -1 15 6 15 6 0 8 5 4
13 -6 9 -5 9 8 0 8 -7 18 -10 22 -6 3 4 13 -2 20 -13 12 -15 17 -17 27 -6 11
10 10 14 0 25 -12 10 -13 8 -7 -8 6 -16 5 -18 -5 -7 -10 9 -10 15 -1 24 10 10
15 10 23 -2 5 -8 7 -23 5 -32 -6 -25 0 -23 34 12 17 17 30 25 31 18 1 -19 17
33 18 60 1 13 -3 21 -9 17 -6 -4 -8 -11 -5 -16 4 -5 -2 -9 -11 -9 -16 0 -16 2
1 20 10 12 25 18 32 16 7 -3 22 11 35 34 13 22 28 38 35 35 18 -6 26 12 13 32
-10 16 -11 15 -7 -5 3 -12 1 -20 -4 -16 -5 3 -9 13 -10 22 0 10 -5 6 -11 -10
-5 -16 -14 -28 -19 -28 -4 0 -6 -6 -3 -14 3 -8 -3 -18 -13 -23 -23 -12 -79 -1
-75 15 1 7 -2 12 -8 12 -5 0 -14 15 -19 33 l-10 32 3 -37z"/>
<path d="M7944 2483 c4 -14 3 -22 -2 -19 -5 3 -9 -6 -9 -19 0 -14 5 -25 11
-25 6 0 4 -5 -4 -10 -13 -8 -13 -10 2 -10 24 0 31 17 12 28 -11 6 -13 11 -5
16 6 4 11 4 12 -1 0 -4 5 1 10 12 9 19 9 18 5 -2 -2 -13 0 -23 6 -23 6 0 8 -7
4 -15 -3 -9 0 -15 8 -15 8 0 17 -7 20 -16 3 -8 2 -12 -3 -9 -16 9 -22 -12 -11
-40 8 -22 13 -24 29 -15 12 6 22 6 25 1 3 -5 -1 -11 -9 -15 -8 -3 -15 -12 -15
-20 0 -19 38 -9 42 12 2 12 14 5 46 -26 44 -43 51 -55 28 -46 -8 3 -17 1 -20
-5 -4 -6 -13 -8 -21 -4 -20 7 -48 -4 -40 -16 3 -6 17 -6 35 -1 26 7 34 5 55
-16 14 -14 23 -29 20 -35 -4 -5 4 -5 19 1 17 6 35 6 52 -1 15 -5 29 -7 32 -4
3 3 0 5 -7 5 -7 0 -9 5 -5 12 5 7 3 8 -6 3 -7 -4 -16 -2 -21 6 -11 18 -11 32
0 25 25 -16 1 26 -34 58 -35 33 -41 36 -51 21 -11 -15 -13 -14 -20 7 -4 13 -6
24 -5 26 4 6 -25 29 -31 25 -13 -7 -9 12 5 26 10 11 10 13 0 7 -7 -4 -13 -3
-13 3 0 5 -8 12 -17 16 -10 3 -27 17 -37 32 -11 14 -14 23 -8 19 7 -4 12 -2
12 3 0 6 -6 11 -13 11 -17 0 -59 35 -51 42 2 3 -5 8 -17 11 -18 5 -20 2 -15
-20z"/>
<path d="M4315 1844 c-43 -22 -74 -64 -75 -101 0 -59 72 -71 155 -25 75 41 80
93 11 126 -42 20 -53 20 -91 0z"/>
</g>
</svg>
